<svg width="97" height="23" viewBox="0 0 97 23" fill="none" xmlns="http://www.w3.org/2000/svg">
<path d="M6.86061 15.5162H0V0H6.86061C10.9679 0 14.308 3.34003 14.308 7.44737V8.06538C14.308 12.1727 10.9679 15.5128 6.86061 15.5128V15.5162ZM2.77757 12.7387H6.86061C9.43681 12.7387 11.5304 10.6416 11.5304 8.06885V7.45084C11.5304 4.87464 9.43334 2.78105 6.86061 2.78105H2.77757V12.7421V12.7387Z" fill="#5C5AEE"/>
<path d="M61.7558 15.5162C58.1415 15.5162 55.2042 12.5754 55.2042 8.96108C55.2042 5.34676 58.145 2.40601 61.7558 2.40601C65.3667 2.40601 68.3109 5.34676 68.3109 8.96108C68.3109 12.5754 65.3701 15.5162 61.7558 15.5162ZM61.7558 5.18705C59.6726 5.18705 57.9818 6.88137 57.9818 8.96455C57.9818 11.0477 59.6761 12.7421 61.7558 12.7421C63.8355 12.7421 65.5333 11.0477 65.5333 8.96455C65.5333 6.88137 63.839 5.18705 61.7558 5.18705Z" fill="#5C5AEE"/>
<path d="M27.4078 12.7385H21.7381C21.6721 12.7385 21.6096 12.7385 21.5471 12.7351L28.3313 8.25969L28.0779 7.29448C27.321 4.41969 24.717 2.40942 21.7381 2.40942C18.1237 2.40942 15.1865 5.35018 15.1865 8.9645C15.1865 12.5788 18.1272 15.5196 21.7381 15.5196H27.4078V12.742V12.7385ZM17.9606 8.96103C17.9606 6.87785 19.6549 5.18353 21.7346 5.18353C23.1199 5.18353 24.3698 5.94041 25.026 7.10352L18.7383 11.2525C18.2487 10.6172 17.9606 9.82208 17.9606 8.95756V8.96103Z" fill="#5C5AEE"/>
<path d="M86.6704 16.2769C86.6707 18.3598 88.3618 20.0542 90.4448 20.0542C92.5278 20.0541 94.2219 18.3598 94.2222 16.2769H96.9995C96.9993 19.8909 94.0554 22.8314 90.4448 22.8315C86.8341 22.8315 83.8933 19.891 83.8931 16.2769H86.6704ZM96.9966 2.20459V9.52295H96.9683C96.6836 12.8768 93.8681 15.519 90.4448 15.519C86.834 15.519 83.8931 12.5786 83.8931 8.96436C83.8931 5.35004 86.8305 2.40967 90.4448 2.40967C91.8543 2.4097 93.1529 2.85695 94.2222 3.61377V2.20459H96.9966ZM90.4448 5.18311C88.3652 5.18311 86.6706 6.87743 86.6704 8.96045C86.6704 11.0436 88.3616 12.7388 90.4448 12.7388C92.5279 12.7387 94.2222 11.0436 94.2222 8.96045C94.222 6.87748 92.5243 5.18319 90.4448 5.18311Z" fill="#5C5AEE"/>
<path d="M50.3262 15.5162H42.0595V12.7386H50.3262C51.0797 12.7386 51.6907 12.2039 51.6907 11.5442C51.6907 10.8846 51.0797 10.3499 50.3262 10.3499H45.9516C43.667 10.3499 41.8095 8.56875 41.8095 6.37794C41.8095 4.18713 43.667 2.40601 45.9516 2.40601H51.8331V5.18358H45.9516C45.1982 5.18358 44.5871 5.71826 44.5871 6.37794C44.5871 7.03761 45.1982 7.57229 45.9516 7.57229H50.3262C52.6108 7.57229 54.4683 9.35341 54.4683 11.5442C54.4683 13.735 52.6108 15.5162 50.3262 15.5162Z" fill="#5C5AEE"/>
<path d="M82.4559 15.3702H79.6783V9.58593C79.6783 7.16249 77.984 5.19042 75.9008 5.19042C73.8177 5.19042 72.1233 7.16249 72.1233 9.58593V15.3702H69.3458V9.58593C69.3458 5.63136 72.2865 2.41284 75.9008 2.41284C79.5152 2.41284 82.4559 5.63136 82.4559 9.58593V15.3702Z" fill="#5C5AEE"/>
<path d="M38.4208 2.79834L34.6537 11.5546L30.8901 2.79834H27.991L33.3969 15.3703H35.9106L41.3164 2.79834H38.4208Z" fill="#5C5AEE"/>
</svg>
