<svg width="24" height="24" viewBox="0 0 24 24" fill="none" xmlns="http://www.w3.org/2000/svg">
<mask id="mask0_654_1103" style="mask-type:alpha" maskUnits="userSpaceOnUse" x="0" y="0" width="24" height="24">
<rect width="24" height="24" fill="#D9D9D9"/>
</mask>
<g mask="url(#mask0_654_1103)">
<path d="M11.0691 4.76091C11.5218 3.74641 12.8783 3.74632 13.3309 4.76091L19.2771 18.0949C19.6716 18.9794 19.0657 20.0002 18.1463 20.0002V19.0002C18.2094 19.0002 18.2843 18.9706 18.3445 18.8693C18.406 18.7657 18.4212 18.6303 18.3641 18.5021L12.4168 5.16813C12.3815 5.08923 12.3403 5.05164 12.3103 5.03239C12.2773 5.01124 12.2391 5.0002 12.2 5.00016C12.1608 5.00016 12.1227 5.0112 12.0896 5.03239C12.0597 5.05161 12.0176 5.08883 11.9822 5.16813L6.03593 18.5021C5.97876 18.6303 5.99299 18.7657 6.05448 18.8693C6.11467 18.9707 6.18958 19.0001 6.25273 19.0002V20.0002C5.39071 20 4.80483 19.1029 5.06034 18.2619L5.12284 18.0949L11.0691 4.76091ZM6.47831 19.0002V20.0002H6.25273V19.0002H6.47831ZM11.2371 16.0256C11.8247 15.6537 12.5742 15.6539 13.1619 16.0256L17.8143 18.9689C17.8462 18.9891 17.8829 19.0001 17.9207 19.0002V20.0002C17.7504 20.0001 17.5826 19.964 17.4285 19.8947L17.2791 19.8146L12.6277 16.8713C12.3665 16.706 12.0335 16.706 11.7723 16.8713L7.11991 19.8146L6.9705 19.8947C6.81641 19.9639 6.64852 20.0002 6.47831 20.0002V19.0002C6.51617 19.0002 6.55374 18.9892 6.58573 18.9689L11.2371 16.0256ZM18.1463 19.0002V20.0002H17.9207V19.0002H18.1463Z" fill="white"/>
</g>
</svg>
