<svg width="18" height="9" viewBox="0 0 18 9" fill="none" xmlns="http://www.w3.org/2000/svg">
<path d="M4.6875 8.35338C4.49228 8.54859 4.17574 8.5485 3.98047 8.35338L0.647461 5.02037C0.645054 5.01796 0.642973 5.015 0.640625 5.01256C0.623281 4.99452 0.607279 4.97541 0.592773 4.95494C0.587576 4.9476 0.58288 4.94003 0.578125 4.93248C0.565924 4.91314 0.555405 4.89294 0.545898 4.87193C0.542654 4.86473 0.539019 4.85776 0.536133 4.85045C0.513552 4.79348 0.500044 4.73182 0.5 4.66685C0.5 4.56905 0.529598 4.47836 0.578125 4.40123C0.582741 4.39391 0.58774 4.38687 0.592773 4.37974C0.608055 4.35805 0.625103 4.33816 0.643555 4.3192C0.64506 4.31765 0.645931 4.31487 0.647461 4.31334L3.98047 0.979354C4.17572 0.784623 4.49238 0.784414 4.6875 0.979354C4.88247 1.17447 4.88224 1.49113 4.6875 1.68639L2.20801 4.16685L17 4.16685C17.2761 4.16685 17.5 4.39071 17.5 4.66685C17.4998 4.94284 17.276 5.16685 17 5.16685L2.20801 5.16685L4.6875 7.64635C4.88252 7.84151 4.8824 8.15814 4.6875 8.35338Z" fill="#747577"/>
</svg>
