<svg width="21" height="10" viewBox="0 0 21 10" fill="none" xmlns="http://www.w3.org/2000/svg">
<path d="M5.64746 9.2723C5.42778 9.49188 5.07218 9.49194 4.85254 9.2723L1.10254 5.52328C1.09779 5.51853 1.09439 5.51253 1.08984 5.50765C1.07131 5.48779 1.05459 5.46657 1.03906 5.44418C1.0356 5.43918 1.0316 5.43461 1.02832 5.42953C1.01157 5.40363 0.997733 5.37609 0.985352 5.3475C0.983214 5.34254 0.980505 5.33786 0.978516 5.33285C0.952784 5.26837 0.937523 5.19846 0.9375 5.12484C0.9375 4.97435 0.998488 4.83917 1.09473 4.73812C1.09775 4.73496 1.09943 4.73049 1.10254 4.72738L4.85254 0.976405C5.07203 0.75734 5.42787 0.75749 5.64746 0.976405C5.86707 1.19601 5.86695 1.55262 5.64746 1.7723L2.8584 4.56234L19.5 4.56234C19.8107 4.56234 20.0625 4.81418 20.0625 5.12484C20.0624 5.43542 19.8106 5.68734 19.5 5.68734L2.8584 5.68734L5.64746 8.47738C5.86713 8.69705 5.86713 9.05263 5.64746 9.2723Z" fill="#18191C"/>
<path d="M5.64746 9.2723L5.71816 9.34303L5.71817 9.34301L5.64746 9.2723ZM4.85254 9.2723L4.92325 9.20159L4.92324 9.20158L4.85254 9.2723ZM1.10254 5.52328L1.03183 5.59399L1.03184 5.594L1.10254 5.52328ZM1.08984 5.50765L1.16299 5.43947L1.16298 5.43945L1.08984 5.50765ZM1.03906 5.44418L0.956862 5.50113L0.956885 5.50116L1.03906 5.44418ZM1.02832 5.42953L1.11233 5.37528L1.11229 5.37523L1.02832 5.42953ZM0.985352 5.3475L0.893521 5.38708L0.893586 5.38723L0.985352 5.3475ZM0.978516 5.33285L1.07146 5.29594L1.07139 5.29578L0.978516 5.33285ZM0.9375 5.12484L0.8375 5.12484L0.8375 5.12487L0.9375 5.12484ZM1.09473 4.73812L1.0224 4.66907L1.02231 4.66916L1.09473 4.73812ZM1.10254 4.72738L1.03182 4.65668L1.03181 4.65669L1.10254 4.72738ZM4.85254 0.976405L4.7819 0.905625L4.78182 0.905703L4.85254 0.976405ZM5.64746 0.976405L5.71817 0.905695L5.71806 0.905586L5.64746 0.976405ZM5.64746 1.7723L5.71819 1.843L5.7182 1.84298L5.64746 1.7723ZM2.8584 4.56234L2.78768 4.49164C2.75908 4.52025 2.75053 4.56326 2.76601 4.60062C2.78149 4.63798 2.81796 4.66234 2.8584 4.66234L2.8584 4.56234ZM19.5 4.56234L19.5 4.46234L19.5 4.56234ZM20.0625 5.12484L20.1625 5.12488L20.1625 5.12484L20.0625 5.12484ZM19.5 5.68734L19.5 5.58734L19.5 5.68734ZM2.8584 5.68734L2.8584 5.58734C2.81796 5.58734 2.78149 5.6117 2.76601 5.64907C2.75053 5.68643 2.75908 5.72944 2.78768 5.75804L2.8584 5.68734ZM5.64746 8.47738L5.57674 8.54808L5.57675 8.54809L5.64746 8.47738ZM5.64746 9.2723L5.57677 9.20158C5.39612 9.38214 5.10382 9.38216 4.92325 9.20159L4.85254 9.2723L4.78183 9.34301C5.04054 9.60172 5.45945 9.60162 5.71816 9.34303L5.64746 9.2723ZM4.85254 9.2723L4.92324 9.20158L1.17324 5.45256L1.10254 5.52328L1.03184 5.594L4.78184 9.34302L4.85254 9.2723ZM1.10254 5.52328L1.17325 5.45257C1.17524 5.45456 1.1765 5.45609 1.17691 5.4566C1.17725 5.45701 1.17729 5.45709 1.17633 5.45581C1.17572 5.45499 1.17383 5.45242 1.17191 5.44995C1.16981 5.44727 1.16679 5.44354 1.16299 5.43947L1.08984 5.50765L1.0167 5.57584C1.01517 5.5742 1.01428 5.57305 1.01425 5.57302C1.01422 5.57298 1.0143 5.57309 1.0146 5.57348C1.01496 5.57397 1.01522 5.57431 1.0159 5.57522C1.01695 5.57664 1.01902 5.57942 1.02147 5.58244C1.024 5.58557 1.02747 5.58963 1.03183 5.59399L1.10254 5.52328ZM1.08984 5.50765L1.16298 5.43945C1.14821 5.42361 1.13446 5.40626 1.12124 5.3872L1.03906 5.44418L0.956885 5.50116C0.974724 5.52689 0.994423 5.55196 1.01671 5.57586L1.08984 5.50765ZM1.03906 5.44418L1.12126 5.38723C1.1178 5.38223 1.11406 5.37744 1.11297 5.37602C1.11119 5.3737 1.11156 5.3741 1.11233 5.37528L1.02832 5.42953L0.944313 5.48378C0.948357 5.49004 0.952374 5.49526 0.954277 5.49775C0.956879 5.50114 0.956868 5.50113 0.956862 5.50113L1.03906 5.44418ZM1.02832 5.42953L1.11229 5.37523C1.09941 5.35531 1.08805 5.33302 1.07712 5.30776L0.985352 5.3475L0.893586 5.38723C0.90741 5.41916 0.923731 5.45195 0.94435 5.48383L1.02832 5.42953ZM0.985352 5.3475L1.07718 5.30791C1.07484 5.30248 1.07221 5.29727 1.07154 5.29592C1.07036 5.29352 1.07081 5.29431 1.07146 5.29594L0.978516 5.33285L0.885577 5.36976C0.888213 5.37639 0.891011 5.38203 0.892214 5.38447C0.893931 5.38794 0.893727 5.38756 0.893521 5.38708L0.985352 5.3475ZM0.978516 5.33285L1.07139 5.29578C1.04986 5.24182 1.03752 5.18445 1.0375 5.12481L0.9375 5.12484L0.8375 5.12487C0.837529 5.21247 0.855709 5.29492 0.88564 5.36992L0.978516 5.33285ZM0.9375 5.12484L1.0375 5.12484C1.0375 5.00221 1.08704 4.89119 1.16714 4.80709L1.09473 4.73812L1.02231 4.66916C0.909933 4.78716 0.8375 4.94648 0.8375 5.12484L0.9375 5.12484ZM1.09473 4.73812L1.16706 4.80718C1.17262 4.80135 1.17659 4.79596 1.17903 4.79244C1.18127 4.78919 1.18321 4.78604 1.18343 4.78569C1.18414 4.78455 1.18329 4.78596 1.18201 4.78777C1.18057 4.78979 1.17767 4.79367 1.17327 4.79808L1.10254 4.72738L1.03181 4.65669C1.02585 4.66265 1.02157 4.66825 1.01886 4.67209C1.01629 4.67571 1.01425 4.67902 1.01377 4.67978C1.01281 4.68133 1.01356 4.68008 1.01454 4.67866C1.01572 4.67696 1.01835 4.67331 1.0224 4.66907L1.09473 4.73812ZM1.10254 4.72738L1.17326 4.79808L4.92326 1.04711L4.85254 0.976405L4.78182 0.905703L1.03182 4.65668L1.10254 4.72738ZM4.85254 0.976405L4.92318 1.04718C5.1036 0.867118 5.39626 0.867178 5.57686 1.04722L5.64746 0.976405L5.71806 0.905586C5.45949 0.647802 5.04047 0.647561 4.7819 0.905625L4.85254 0.976405ZM5.64746 0.976405L5.57675 1.04712C5.75728 1.22764 5.75723 1.52095 5.57672 1.70162L5.64746 1.7723L5.7182 1.84298C5.97667 1.58428 5.97687 1.16439 5.71817 0.905695L5.64746 0.976405ZM5.64746 1.7723L5.57674 1.70161L2.78768 4.49164L2.8584 4.56234L2.92912 4.63304L5.71818 1.843L5.64746 1.7723ZM2.8584 4.56234L2.8584 4.66234L19.5 4.66234L19.5 4.56234L19.5 4.46234L2.8584 4.46234L2.8584 4.56234ZM19.5 4.56234L19.5 4.66234C19.7554 4.66234 19.9625 4.86941 19.9625 5.12484L20.0625 5.12484L20.1625 5.12484C20.1625 4.75896 19.8659 4.46234 19.5 4.46234L19.5 4.56234ZM20.0625 5.12484L19.9625 5.12481C19.9624 5.38022 19.7553 5.58734 19.5 5.58734L19.5 5.68734L19.5 5.78734C19.8659 5.78734 20.1624 5.49062 20.1625 5.12488L20.0625 5.12484ZM19.5 5.68734L19.5 5.58734L2.8584 5.58734L2.8584 5.68734L2.8584 5.78734L19.5 5.78734L19.5 5.68734ZM2.8584 5.68734L2.78768 5.75804L5.57674 8.54808L5.64746 8.47738L5.71818 8.40668L2.92912 5.61664L2.8584 5.68734ZM5.64746 8.47738L5.57675 8.54809C5.75737 8.72871 5.75737 9.02098 5.57675 9.20159L5.64746 9.2723L5.71817 9.34301C5.97689 9.08429 5.97689 8.66539 5.71817 8.40667L5.64746 8.47738Z" fill="#18191C"/>
</svg>
