<svg width="24" height="24" viewBox="0 0 24 24" fill="none" xmlns="http://www.w3.org/2000/svg">
<rect width="24" height="24" transform="matrix(-1 0 0 -1 24 24)" fill="white"/>
<mask id="mask0_596_3141" style="mask-type:alpha" maskUnits="userSpaceOnUse" x="0" y="0" width="24" height="24">
<rect x="24" y="24" width="24" height="24" transform="rotate(-180 24 24)" fill="#D9D9D9"/>
</mask>
<g mask="url(#mask0_596_3141)">
<path d="M7.6875 15.3534C7.49228 15.5486 7.17574 15.5485 6.98047 15.3534L3.64746 12.0204C3.64505 12.018 3.64297 12.015 3.64062 12.0126C3.62328 11.9945 3.60728 11.9754 3.59277 11.9549C3.58758 11.9476 3.58288 11.94 3.57812 11.9325C3.56592 11.9131 3.5554 11.8929 3.5459 11.8719C3.54265 11.8647 3.53902 11.8578 3.53613 11.8504C3.51355 11.7935 3.50004 11.7318 3.5 11.6669C3.5 11.569 3.5296 11.4784 3.57812 11.4012C3.58274 11.3939 3.58774 11.3869 3.59277 11.3797C3.60806 11.358 3.6251 11.3382 3.64355 11.3192C3.64506 11.3177 3.64593 11.3149 3.64746 11.3133L6.98047 7.97935C7.17572 7.78462 7.49238 7.78441 7.6875 7.97935C7.88247 8.17447 7.88224 8.49113 7.6875 8.68639L5.20801 11.1669H20C20.2761 11.1669 20.5 11.3907 20.5 11.6669C20.4998 11.9428 20.276 12.1669 20 12.1669H5.20801L7.6875 14.6463C7.88252 14.8415 7.8824 15.1581 7.6875 15.3534Z" fill="#747577"/>
</g>
</svg>
