<svg width="24" height="24" viewBox="0 0 24 24" fill="none" xmlns="http://www.w3.org/2000/svg">
<mask id="mask0_364_1568" style="mask-type:alpha" maskUnits="userSpaceOnUse" x="-1" y="0" width="25" height="24">
<rect x="-0.000488281" width="24" height="24" fill="#D9D9D9"/>
</mask>
<g mask="url(#mask0_364_1568)">
<path d="M17.9995 4C19.1041 4 19.9995 4.89543 19.9995 6V13.5C19.9995 13.7761 19.7757 14 19.4995 14C19.2234 14 18.9995 13.7761 18.9995 13.5V6C18.9995 5.44772 18.5518 5 17.9995 5H5.99951C5.44723 5 4.99951 5.44772 4.99951 6V18C4.99951 18.5523 5.44723 19 5.99951 19H13.4995C13.7757 19 13.9995 19.2239 13.9995 19.5C13.9995 19.7761 13.7757 20 13.4995 20H5.99951C4.89494 20 3.99951 19.1046 3.99951 18V6C3.99951 4.89543 4.89494 4 5.99951 4H17.9995ZM15.9517 13.0137C17.3023 13.1508 18.356 14.2919 18.356 15.6787L18.3423 15.9521C18.2962 16.4063 18.1344 16.8254 17.8901 17.1836L19.8335 19.127L19.897 19.2051C20.0252 19.3992 20.0044 19.6631 19.8335 19.834C19.6626 20.0048 19.3987 20.0257 19.2046 19.8975L19.1265 19.834L17.1831 17.8906C16.7539 18.1831 16.2368 18.3564 15.6782 18.3564L15.4038 18.3428C14.1433 18.2146 13.1411 17.2127 13.0132 15.9521L12.9995 15.6787C12.9995 14.1995 14.199 13 15.6782 13L15.9517 13.0137ZM15.6782 14C14.7513 14 13.9995 14.7518 13.9995 15.6787C13.9997 16.6055 14.7514 17.3564 15.6782 17.3564C16.6049 17.3563 17.3558 16.6054 17.356 15.6787C17.356 14.7519 16.605 14.0002 15.6782 14ZM13.9995 10.5C14.2757 10.5 14.4995 10.7239 14.4995 11C14.4995 11.2761 14.2757 11.5 13.9995 11.5H7.99951C7.72337 11.5 7.49951 11.2761 7.49951 11C7.49951 10.7239 7.72337 10.5 7.99951 10.5H13.9995ZM15.9995 7.5C16.2757 7.5 16.4995 7.72386 16.4995 8C16.4995 8.27614 16.2757 8.5 15.9995 8.5H7.99951C7.72337 8.5 7.49951 8.27614 7.49951 8C7.49951 7.72386 7.72337 7.5 7.99951 7.5H15.9995Z" fill="#5C5AEE"/>
</g>
</svg>
