<svg width="24" height="24" viewBox="0 0 24 24" fill="none" xmlns="http://www.w3.org/2000/svg">
<mask id="mask0_364_1578" style="mask-type:alpha" maskUnits="userSpaceOnUse" x="-1" y="0" width="25" height="24">
<rect x="-0.000488281" width="24" height="24" fill="#D9D9D9"/>
</mask>
<g mask="url(#mask0_364_1578)">
<path d="M11.9995 4C16.4178 4 19.9995 7.58172 19.9995 12C19.9995 16.0207 17.0329 19.3449 13.1694 19.9111C13.1687 19.9034 13.1693 19.8955 13.1685 19.8877V19.8887C13.1693 19.8961 13.1688 19.9037 13.1694 19.9111C12.8433 19.9589 12.5111 19.9908 12.1733 19.998L12.1724 19.999V20H5.45264L5.35107 19.9932C4.86182 19.9242 4.58745 19.3605 4.86768 18.9268L5.67334 17.6826C5.84166 17.4225 5.81496 17.0835 5.62744 16.8369C4.60611 15.4936 3.99951 13.8177 3.99951 12C3.99951 7.58174 7.58125 4.00002 11.9995 4ZM11.9995 5C8.13353 5.00002 4.99951 8.13403 4.99951 12C4.99951 13.5917 5.52955 15.0569 6.42334 16.2324C6.84259 16.7839 6.93038 17.5807 6.51318 18.2256L6.01123 19H12.1294C12.1369 18.9997 12.1443 18.9982 12.1519 18.998L12.5054 18.9814C16.1351 18.7225 18.9995 15.6958 18.9995 12C18.9995 8.25486 16.0584 5.19633 12.3599 5.00879L11.9995 5ZM9.19971 11.4004C9.53108 11.4004 9.80029 11.6686 9.80029 12C9.80024 12.3313 9.53105 12.5996 9.19971 12.5996C8.86855 12.5994 8.60015 12.3312 8.6001 12C8.6001 11.6688 8.86852 11.4006 9.19971 11.4004ZM11.9995 11.4004C12.3309 11.4004 12.6001 11.6686 12.6001 12C12.6 12.3313 12.3308 12.5996 11.9995 12.5996C11.6684 12.5994 11.4 12.3312 11.3999 12C11.3999 11.6688 11.6683 11.4006 11.9995 11.4004ZM14.7993 11.4004C15.1307 11.4004 15.3999 11.6686 15.3999 12C15.3998 12.3313 15.1307 12.5996 14.7993 12.5996C14.4682 12.5994 14.1998 12.3312 14.1997 12C14.1997 11.6688 14.4681 11.4006 14.7993 11.4004Z" fill="#A3A3A4"/>
</g>
</svg>
