<svg width="20" height="20" viewBox="0 0 20 20" fill="none" xmlns="http://www.w3.org/2000/svg">
<mask id="mask0_1078_1658" style="mask-type:alpha" maskUnits="userSpaceOnUse" x="0" y="0" width="20" height="20">
<rect width="20" height="20" fill="#D9D9D9"/>
</mask>
<g mask="url(#mask0_1078_1658)">
<path d="M15.8335 9.99992C15.8335 6.87897 13.3826 4.33019 10.3005 4.17391L10.0002 4.16659C6.77851 4.16661 4.16683 6.77828 4.16683 9.99992C4.16683 11.3263 4.60853 12.5474 5.35335 13.5269C5.70273 13.9865 5.77588 14.6505 5.42822 15.1879L5.00993 15.8333H10.1084C10.1146 15.833 10.1208 15.8318 10.1271 15.8316L10.4217 15.8178C13.4465 15.602 15.8335 13.0798 15.8335 9.99992ZM10.9189 16.3582H10.9198L10.8677 16.2524L10.9189 16.3582ZM9.73486 15.9399C9.72756 15.944 9.72004 15.9477 9.71289 15.9521C9.72004 15.9477 9.72757 15.944 9.73486 15.9399ZM16.6668 9.99992C16.6668 13.3505 14.1947 16.1206 10.9751 16.5925C10.9745 16.5861 10.975 16.5795 10.9743 16.573V16.5738C10.975 16.58 10.9745 16.5863 10.9751 16.5925C10.7033 16.6324 10.4265 16.659 10.145 16.665L10.1442 16.6658V16.6666H4.54443L4.4598 16.6609C4.05208 16.6034 3.82344 16.1337 4.05697 15.7722L4.72835 14.7354C4.86862 14.5187 4.84637 14.2362 4.6901 14.0307C3.839 12.9112 3.3335 11.5147 3.3335 9.99992C3.3335 6.31803 6.31828 3.33327 10.0002 3.33325C13.6821 3.33325 16.6668 6.31802 16.6668 9.99992Z" fill="#747577"/>
</g>
</svg>
