<svg width="12" height="12" viewBox="0 0 12 12" fill="none" xmlns="http://www.w3.org/2000/svg">
<mask id="mask0_382_1085" style="mask-type:alpha" maskUnits="userSpaceOnUse" x="0" y="0" width="12" height="12">
<rect width="12" height="12" fill="#D9D9D9"/>
</mask>
<g mask="url(#mask0_382_1085)">
<path d="M9.5 6C9.5 4.12743 8.02944 2.59816 6.18018 2.50439L6 2.5C4.06701 2.50001 2.5 4.06701 2.5 6C2.5 6.79583 2.76502 7.52847 3.21191 8.11621C3.42154 8.39195 3.46543 8.79033 3.25684 9.11279L3.00586 9.5H6.06494C6.06868 9.49984 6.07241 9.4991 6.07617 9.49902L6.25293 9.49072C8.0678 9.36123 9.5 7.84791 9.5 6ZM6.55127 9.81494H6.55176L6.52051 9.75146L6.55127 9.81494ZM5.84082 9.56396C5.83644 9.56644 5.83193 9.56869 5.82764 9.57129C5.83193 9.56868 5.83644 9.56645 5.84082 9.56396ZM10 6C10 8.01036 8.5167 9.67243 6.58496 9.95557C6.58461 9.95168 6.58492 9.94774 6.58447 9.94385V9.94434C6.58489 9.94806 6.58463 9.95184 6.58496 9.95557C6.42187 9.97947 6.25578 9.99542 6.08691 9.99902L6.08643 9.99951V10H2.72656L2.67578 9.99658C2.43115 9.96208 2.29397 9.68026 2.43408 9.46338L2.83691 8.84131C2.92107 8.71125 2.90773 8.54177 2.81396 8.41846C2.3033 7.74678 2 6.90886 2 6C2 3.79087 3.79087 2.00001 6 2C8.20914 2 10 3.79086 10 6Z" fill="#18191C"/>
</g>
</svg>
