<svg width="24" height="24" viewBox="0 0 24 24" fill="none" xmlns="http://www.w3.org/2000/svg">
<mask id="mask0_642_2708" style="mask-type:alpha" maskUnits="userSpaceOnUse" x="0" y="0" width="24" height="24">
<rect width="24" height="24" fill="#D9D9D9"/>
</mask>
<g mask="url(#mask0_642_2708)">
<path fill-rule="evenodd" clip-rule="evenodd" d="M17.668 3.5C19.0485 3.50026 20.168 4.61945 20.168 6V18C20.168 19.3805 19.0485 20.4997 17.668 20.5H5.66797C4.28726 20.5 3.16797 19.3807 3.16797 18V8.8457L8.51367 3.5H17.668ZM9.2207 7.05273C9.22065 8.4332 8.10111 9.55241 6.7207 9.55273H4.16797V18C4.16797 18.8284 4.83954 19.5 5.66797 19.5H17.668C18.4962 19.4997 19.168 18.8283 19.168 18V6C19.168 5.17174 18.4962 4.50026 17.668 4.5H9.2207V7.05273ZM16 14.5C16.2761 14.5 16.5 14.7239 16.5 15C16.5 15.2761 16.2761 15.5 16 15.5H8C7.72386 15.5 7.5 15.2761 7.5 15C7.5 14.7239 7.72386 14.5 8 14.5H16ZM16 11.5C16.2761 11.5 16.5 11.7239 16.5 12C16.5 12.2761 16.2761 12.5 16 12.5H8C7.72386 12.5 7.5 12.2761 7.5 12C7.5 11.7239 7.72386 11.5 8 11.5H16ZM16 8.5C16.2761 8.5 16.5 8.72386 16.5 9C16.5 9.27614 16.2761 9.5 16 9.5H12C11.7239 9.5 11.5 9.27614 11.5 9C11.5 8.72386 11.7239 8.5 12 8.5H16ZM4.875 8.55273H6.7207C7.54882 8.55241 8.22065 7.88092 8.2207 7.05273V5.20703L4.875 8.55273Z" fill="#5C5AEE"/>
</g>
</svg>
