<svg width="24" height="24" viewBox="0 0 24 24" fill="none" xmlns="http://www.w3.org/2000/svg">
<mask id="mask0_456_3248" style="mask-type:alpha" maskUnits="userSpaceOnUse" x="0" y="0" width="24" height="24">
<rect width="24" height="24" fill="#D9D9D9"/>
</mask>
<g mask="url(#mask0_456_3248)">
<path d="M13.2272 5.33985C13.6278 4.64635 14.4853 4.38006 15.2018 4.70216L15.3434 4.7754L17.0212 5.74415L17.154 5.83008C17.7914 6.28941 17.9907 7.16465 17.5905 7.85841L11.9704 17.5928C11.802 17.8844 11.5426 18.1132 11.2321 18.2441L8.80926 19.2656L8.72039 19.2969C8.30134 19.4172 7.86202 19.1632 7.75653 18.7402L7.73797 18.6475L7.4118 16.0381C7.37005 15.7039 7.4389 15.3657 7.60711 15.0742L13.2272 5.33985ZM8.47235 15.5742C8.41333 15.6767 8.38929 15.7961 8.40399 15.9141L8.69403 18.2285L10.8434 17.3223C10.9532 17.276 11.0449 17.1955 11.1042 17.0928L15.736 9.06934L13.1042 7.54981L8.47235 15.5742ZM14.8434 5.64161C14.5787 5.48876 14.2427 5.57998 14.0925 5.83985L13.6042 6.6836L16.236 8.20313L16.7243 7.35841C16.8554 7.13086 16.8042 6.84499 16.612 6.67481L16.5212 6.61036L14.8434 5.64161Z" fill="#747577"/>
</g>
</svg>
