<svg width="19" height="17" viewBox="0 0 19 17" fill="none" xmlns="http://www.w3.org/2000/svg">
<path d="M9.0778 1.36568C7.74577 0.24348 6.20653 -0.24116 4.44365 0.115335C2.27912 0.553168 0.8658 1.87572 0.220616 3.98005L0.157808 4.20397C-0.129431 5.32829 0.00555658 6.45837 0.32111 7.57196C0.739328 9.0508 1.53326 10.3233 2.54226 11.4628C4.35192 13.507 6.55712 15.0225 9.00014 16.2119L9.09836 16.2528C9.32725 16.3317 9.55197 16.2974 9.77783 16.1869C11.8937 15.1495 13.8293 13.8523 15.5026 12.1857C16.6236 11.069 17.5577 9.81837 18.1383 8.33353C18.6254 7.08787 18.858 5.80203 18.6099 4.46882C17.9029 0.670892 13.6266 -1.20523 10.3511 0.845083C9.9988 1.06553 9.68212 1.34298 9.3416 1.5987L9.0778 1.36568Z" fill="#FF8587"/>
</svg>
