<svg width="24" height="24" viewBox="0 0 24 24" fill="none" xmlns="http://www.w3.org/2000/svg">
<mask id="mask0_1658_722" style="mask-type:alpha" maskUnits="userSpaceOnUse" x="0" y="0" width="24" height="24">
<rect width="24" height="24" fill="#D9D9D9"/>
</mask>
<g mask="url(#mask0_1658_722)">
<path d="M7.79999 5.09909C9.30752 4.79281 10.6238 5.20918 11.7629 6.17331L11.9885 6.3735C12.2797 6.15381 12.5505 5.91544 12.8517 5.72604C15.6527 3.96454 19.3097 5.57639 19.9142 8.83932C20.1264 9.98473 19.9275 11.0894 19.5109 12.1596C19.0144 13.4353 18.2156 14.5097 17.257 15.4692C15.8261 16.901 14.1709 18.0155 12.3615 18.9067C12.1684 19.0017 11.9762 19.0312 11.7805 18.9633L11.6965 18.9282C9.60732 17.9064 7.72155 16.6044 6.17401 14.8481C5.31116 13.8691 4.63224 12.7759 4.2746 11.5053C4.00475 10.5486 3.88932 9.57772 4.13495 8.61178L4.18866 8.4194C4.74039 6.6115 5.94899 5.47525 7.79999 5.09909Z" fill="#FF8587"/>
</g>
</svg>
