<svg width="12" height="12" viewBox="0 0 12 12" fill="none" xmlns="http://www.w3.org/2000/svg">
<mask id="mask0_382_1080" style="mask-type:alpha" maskUnits="userSpaceOnUse" x="0" y="0" width="12" height="12">
<rect width="12" height="12" fill="#D9D9D9"/>
</mask>
<g mask="url(#mask0_382_1080)">
<path d="M3.89999 2.5493C4.65376 2.39616 5.3119 2.60435 5.88144 3.08641L5.99423 3.18651C6.13983 3.07666 6.27523 2.95747 6.42587 2.86278C7.82637 1.98203 9.65484 2.78795 9.95712 4.41942C10.0632 4.99212 9.96376 5.54448 9.75546 6.07957C9.50721 6.71741 9.10781 7.25462 8.62851 7.73436C7.91306 8.45025 7.08544 9.00748 6.18076 9.45311C6.08418 9.50059 5.9881 9.51535 5.89023 9.48143L5.84824 9.46385C4.80366 8.95294 3.86077 8.30194 3.08701 7.42381C2.65558 6.9343 2.31612 6.38769 2.1373 5.75242C2.00238 5.27406 1.94466 4.78862 2.06747 4.30565L2.09433 4.20946C2.37019 3.30551 2.97449 2.73738 3.89999 2.5493ZM5.6539 3.55272C5.1583 3.09231 4.62211 2.91306 3.9996 3.03953C3.26035 3.18977 2.79712 3.62056 2.57285 4.35545C2.45447 4.74343 2.48871 5.15569 2.61874 5.61668V5.61717C2.75317 6.09465 2.99525 6.52323 3.31845 6.92332L3.46201 7.09325L3.59921 7.24412C4.27752 7.96981 5.09143 8.52876 6.00302 8.98192C6.85032 8.55982 7.61614 8.04057 8.27499 7.38133C8.72096 6.93498 9.07339 6.45404 9.28964 5.89842C9.47533 5.42145 9.54968 4.96591 9.46542 4.51073C9.22708 3.22418 7.79146 2.59465 6.69199 3.28612C6.56363 3.3668 6.48186 3.44497 6.29501 3.58592L5.96054 3.83787L5.6539 3.55272Z" fill="#18191C"/>
</g>
</svg>
