<svg xmlns="http://www.w3.org/2000/svg">

  <symbol id="nav_chat_active" viewBox="0 0 24 24">
    <mask id="mask0_678_1247" maskUnits="userSpaceOnUse" x="0" y="0" width="24" height="24">
      <rect width="24" height="24" fill="#D9D9D9"></rect>
    </mask>
    <g mask="url(#mask0_678_1247)">
      <path d="M11.9996 2.40002C17.3014 2.40002 21.6 6.69788 21.6002 11.9996C21.6002 16.8245 18.0401 20.8142 13.4039 21.4938C13.4031 21.4845 13.404 21.4747 13.403 21.4655V21.4664C13.404 21.4754 13.4031 21.4848 13.4039 21.4938C13.0125 21.5511 12.6139 21.5886 12.2086 21.5973L12.2076 21.5992V21.6002H4.14417L4.02209 21.5914C3.43499 21.5086 3.10574 20.8326 3.44202 20.3121L4.40881 18.819C4.61064 18.5069 4.57812 18.1002 4.35315 17.8043C3.12764 16.1923 2.40002 14.1808 2.40002 11.9996C2.40024 6.69803 6.69803 2.40026 11.9996 2.40002ZM11.9996 3.60022C7.36077 3.60046 3.60043 7.36078 3.60022 11.9996C3.60022 13.9095 4.23582 15.6682 5.30823 17.0787C5.81125 17.7404 5.91699 18.6965 5.41663 19.4703L4.81409 20.4H12.1559C12.1649 20.3996 12.1742 20.3983 12.1832 20.3981L12.6071 20.3776C16.9627 20.0668 20.4 16.4346 20.4 11.9996C20.3998 7.50564 16.8704 3.836 12.4323 3.61096L11.9996 3.60022ZM8.64026 11.2799C9.03782 11.2799 9.36083 11.6021 9.36096 11.9996C9.36096 12.3973 9.0379 12.7203 8.64026 12.7203C8.24282 12.7201 7.92053 12.3971 7.92053 11.9996C7.92067 11.6023 8.2429 11.2801 8.64026 11.2799ZM12.0006 11.2799C12.3981 11.28 12.7202 11.6021 12.7203 11.9996C12.7203 12.3972 12.3982 12.7203 12.0006 12.7203C11.603 12.7203 11.2809 12.3973 11.2809 11.9996C11.281 11.6021 11.603 11.2799 12.0006 11.2799ZM15.36 11.2799C15.7575 11.2799 16.0806 11.6021 16.0807 11.9996C16.0807 12.3973 15.7576 12.7203 15.36 12.7203C14.9625 12.7202 14.6403 12.3972 14.6403 11.9996C14.6404 11.6022 14.9625 11.28 15.36 11.2799Z" fill="#5C5AEE"></path>
    </g>
  </symbol>

  <symbol id="nav_chat" viewBox="0 0 24 24">
    <mask id="mask0_678_1247" maskUnits="userSpaceOnUse" x="0" y="0" width="24" height="24">
      <rect width="24" height="24" fill="#D9D9D9"></rect>
    </mask>
    <g mask="url(#mask0_678_1247)">
      <path d="M11.9996 2.40002C17.3014 2.40002 21.6 6.69788 21.6002 11.9996C21.6002 16.8245 18.0401 20.8142 13.4039 21.4938C13.4031 21.4845 13.404 21.4747 13.403 21.4655V21.4664C13.404 21.4754 13.4031 21.4848 13.4039 21.4938C13.0125 21.5511 12.6139 21.5886 12.2086 21.5973L12.2076 21.5992V21.6002H4.14417L4.02209 21.5914C3.43499 21.5086 3.10574 20.8326 3.44202 20.3121L4.40881 18.819C4.61064 18.5069 4.57812 18.1002 4.35315 17.8043C3.12764 16.1923 2.40002 14.1808 2.40002 11.9996C2.40024 6.69803 6.69803 2.40026 11.9996 2.40002ZM11.9996 3.60022C7.36077 3.60046 3.60043 7.36078 3.60022 11.9996C3.60022 13.9095 4.23582 15.6682 5.30823 17.0787C5.81125 17.7404 5.91699 18.6965 5.41663 19.4703L4.81409 20.4H12.1559C12.1649 20.3996 12.1742 20.3983 12.1832 20.3981L12.6071 20.3776C16.9627 20.0668 20.4 16.4346 20.4 11.9996C20.3998 7.50564 16.8704 3.836 12.4323 3.61096L11.9996 3.60022ZM8.64026 11.2799C9.03782 11.2799 9.36083 11.6021 9.36096 11.9996C9.36096 12.3973 9.0379 12.7203 8.64026 12.7203C8.24282 12.7201 7.92053 12.3971 7.92053 11.9996C7.92067 11.6023 8.2429 11.2801 8.64026 11.2799ZM12.0006 11.2799C12.3981 11.28 12.7202 11.6021 12.7203 11.9996C12.7203 12.3972 12.3982 12.7203 12.0006 12.7203C11.603 12.7203 11.2809 12.3973 11.2809 11.9996C11.281 11.6021 11.603 11.2799 12.0006 11.2799ZM15.36 11.2799C15.7575 11.2799 16.0806 11.6021 16.0807 11.9996C16.0807 12.3973 15.7576 12.7203 15.36 12.7203C14.9625 12.7202 14.6403 12.3972 14.6403 11.9996C14.6404 11.6022 14.9625 11.28 15.36 11.2799Z" fill="#A3A3A4"></path>
    </g>
  </symbol>

  <symbol id="nav_home_active" viewBox="0 0 24 24">
    <mask id="mask0_678_1230" maskUnits="userSpaceOnUse" x="0" y="0" width="24" height="24">
      <rect width="24" height="24" fill="#D9D9D9"></rect>
    </mask>
    <g mask="url(#mask0_678_1230)">
      <path d="M10.2882 3.07134C11.2529 2.17565 12.7453 2.17587 13.7101 3.07134L19.9982 8.90923C20.5103 9.385 20.8009 10.0529 20.8009 10.752V19.085L20.7872 19.3419C20.6672 20.5257 19.7269 21.4669 18.5431 21.587L18.2863 21.5997H5.71301L5.45618 21.587C4.27242 21.4669 3.33205 20.5256 3.21204 19.3419L3.19836 19.085V10.752C3.19839 10.053 3.48902 9.385 4.0011 8.90923L10.2882 3.07134ZM12.8556 3.99224C12.3732 3.54444 11.6261 3.54445 11.1437 3.99224L4.85754 9.83111C4.60157 10.069 4.4562 10.4026 4.45618 10.752V19.085C4.45618 19.7794 5.01862 20.3428 5.71301 20.3428H8.85657V15.3135C8.85657 13.9247 9.98239 12.7989 11.3712 12.7989H12.6281C14.0169 12.7989 15.1427 13.9247 15.1427 15.3135V20.3428H18.2863C18.9807 20.3428 19.5441 19.7794 19.5441 19.085V10.752C19.544 10.4027 19.3985 10.069 19.1427 9.83111L12.8556 3.99224ZM11.3712 14.0557C10.6768 14.0557 10.1134 14.6191 10.1134 15.3135V20.3428H13.8859V15.3135C13.8859 14.6191 13.3225 14.0557 12.6281 14.0557H11.3712Z" fill="#5C5AEE"></path>
    </g>
  </symbol>

  <symbol id="nav_home" viewBox="0 0 24 24">
    <mask id="mask0_678_1230" maskUnits="userSpaceOnUse" x="0" y="0" width="24" height="24">
      <rect width="24" height="24" fill="#D9D9D9"></rect>
    </mask>
    <g mask="url(#mask0_678_1230)">
      <path d="M10.2882 3.07134C11.2529 2.17565 12.7453 2.17587 13.7101 3.07134L19.9982 8.90923C20.5103 9.385 20.8009 10.0529 20.8009 10.752V19.085L20.7872 19.3419C20.6672 20.5257 19.7269 21.4669 18.5431 21.587L18.2863 21.5997H5.71301L5.45618 21.587C4.27242 21.4669 3.33205 20.5256 3.21204 19.3419L3.19836 19.085V10.752C3.19839 10.053 3.48902 9.385 4.0011 8.90923L10.2882 3.07134ZM12.8556 3.99224C12.3732 3.54444 11.6261 3.54445 11.1437 3.99224L4.85754 9.83111C4.60157 10.069 4.4562 10.4026 4.45618 10.752V19.085C4.45618 19.7794 5.01862 20.3428 5.71301 20.3428H8.85657V15.3135C8.85657 13.9247 9.98239 12.7989 11.3712 12.7989H12.6281C14.0169 12.7989 15.1427 13.9247 15.1427 15.3135V20.3428H18.2863C18.9807 20.3428 19.5441 19.7794 19.5441 19.085V10.752C19.544 10.4027 19.3985 10.069 19.1427 9.83111L12.8556 3.99224ZM11.3712 14.0557C10.6768 14.0557 10.1134 14.6191 10.1134 15.3135V20.3428H13.8859V15.3135C13.8859 14.6191 13.3225 14.0557 12.6281 14.0557H11.3712Z" fill="#A3A3A4"></path>
    </g>
  </symbol>

  <symbol id="nav_my_active" viewBox="0 0 24 24">
    <mask id="mask0_678_1266" maskUnits="userSpaceOnUse" x="0" y="0" width="24" height="24">
      <rect width="24" height="24" fill="#D9D9D9"></rect>
    </mask>
    <g mask="url(#mask0_678_1266)">
      <path d="M21.5988 21.5992C21.2679 21.5988 21.0022 21.3303 20.9728 21.0006C20.6209 17.0342 16.8081 13.8006 12.0002 13.8004C7.19206 13.8004 3.37854 17.034 3.02655 21.0006C2.99716 21.3306 2.73089 21.6002 2.3996 21.6002C2.06828 21.6002 1.79707 21.3301 1.82147 20.9996C2.17274 16.2462 6.66707 12.6002 12.0002 12.6002C17.3331 12.6004 21.8267 16.2463 22.1779 20.9996C22.2023 21.3301 21.9302 21.5992 21.5988 21.5992ZM12.0002 2.40002C14.6509 2.40026 16.7999 4.54909 16.8 7.19983C16.8 9.85065 14.651 11.9994 12.0002 11.9996C9.34922 11.9996 7.1994 9.8508 7.1994 7.19983C7.1995 4.54894 9.34928 2.40002 12.0002 2.40002ZM12.0002 3.60022C10.012 3.60022 8.39969 5.21168 8.3996 7.19983C8.3996 9.18805 10.012 10.8004 12.0002 10.8004C13.9882 10.8002 15.5998 9.18791 15.5998 7.19983C15.5997 5.21183 13.9882 3.60046 12.0002 3.60022Z" fill="#5C5AEE"></path>
    </g>
  </symbol>

  <symbol id="nav_my" viewBox="0 0 24 24">
    <mask id="mask0_678_1266" maskUnits="userSpaceOnUse" x="0" y="0" width="24" height="24">
      <rect width="24" height="24" fill="#D9D9D9"></rect>
    </mask>
    <g mask="url(#mask0_678_1266)">
      <path d="M21.5988 21.5992C21.2679 21.5988 21.0022 21.3303 20.9728 21.0006C20.6209 17.0342 16.8081 13.8006 12.0002 13.8004C7.19206 13.8004 3.37854 17.034 3.02655 21.0006C2.99716 21.3306 2.73089 21.6002 2.3996 21.6002C2.06828 21.6002 1.79707 21.3301 1.82147 20.9996C2.17274 16.2462 6.66707 12.6002 12.0002 12.6002C17.3331 12.6004 21.8267 16.2463 22.1779 20.9996C22.2023 21.3301 21.9302 21.5992 21.5988 21.5992ZM12.0002 2.40002C14.6509 2.40026 16.7999 4.54909 16.8 7.19983C16.8 9.85065 14.651 11.9994 12.0002 11.9996C9.34922 11.9996 7.1994 9.8508 7.1994 7.19983C7.1995 4.54894 9.34928 2.40002 12.0002 2.40002ZM12.0002 3.60022C10.012 3.60022 8.39969 5.21168 8.3996 7.19983C8.3996 9.18805 10.012 10.8004 12.0002 10.8004C13.9882 10.8002 15.5998 9.18791 15.5998 7.19983C15.5997 5.21183 13.9882 3.60046 12.0002 3.60022Z" fill="#A3A3A4"></path>
    </g>
  </symbol>

  <symbol id="nav_post_active" viewBox="0 0 24 24">
    <mask id="mask0_678_1237" maskUnits="userSpaceOnUse" x="0" y="0" width="24" height="24">
      <rect width="24" height="24" fill="#D9D9D9"></rect>
    </mask>
    <g mask="url(#mask0_678_1237)">
      <path d="M19.1998 2.40002C20.5253 2.40002 21.6002 3.47493 21.6002 4.80042V13.8004C21.5999 14.1316 21.3308 14.4 20.9996 14.4C20.6685 14.3998 20.4002 14.1315 20.4 13.8004V4.80042C20.4 4.13767 19.8625 3.60022 19.1998 3.60022H4.80035C4.13761 3.60022 3.60016 4.13767 3.60016 4.80042V19.1998C3.60016 19.8626 4.13761 20.4 4.80035 20.4H13.8004C14.1314 20.4002 14.3998 20.6686 14.4 20.9996C14.4 21.3309 14.1315 21.6 13.8004 21.6002H4.80035C3.47487 21.6002 2.39996 20.5253 2.39996 19.1998V4.80042C2.39996 3.47493 3.47487 2.40002 4.80035 2.40002H19.1998ZM16.7427 13.2164C18.3634 13.3811 19.6275 14.7506 19.6275 16.4147L19.6109 16.7428C19.5555 17.2879 19.3611 17.7904 19.0679 18.2203L21.4009 20.5533L21.4771 20.6471C21.6309 20.88 21.6059 21.196 21.4009 21.401C21.1958 21.606 20.8789 21.6311 20.6461 21.4772L20.5523 21.401L18.2193 19.068C17.7044 19.4188 17.0847 19.6274 16.4146 19.6276L16.0855 19.611C14.573 19.4572 13.37 18.2553 13.2164 16.7428L13.1998 16.4147C13.1998 14.6396 14.6395 13.1998 16.4146 13.1998L16.7427 13.2164ZM16.4146 14.4C15.3023 14.4 14.4 15.3023 14.4 16.4147C14.4003 17.5268 15.3025 18.4274 16.4146 18.4274C17.5265 18.427 18.427 17.5265 18.4273 16.4147C18.4273 15.3025 17.5267 14.4004 16.4146 14.4ZM14.4 10.1998C14.7313 10.1999 14.9996 10.4691 14.9996 10.8004C14.9993 11.1316 14.7312 11.4 14.4 11.4H7.19977C6.8686 11.3999 6.60038 11.1315 6.60016 10.8004C6.60016 10.4691 6.86846 10.1999 7.19977 10.1998H14.4ZM16.8004 6.60022C17.1315 6.60046 17.3999 6.86868 17.4 7.19983C17.4 7.53105 17.1315 7.80018 16.8004 7.80042H7.19977C6.86846 7.80034 6.60016 7.53115 6.60016 7.19983C6.60025 6.86859 6.86852 6.6003 7.19977 6.60022H16.8004Z" fill="#5C5AEE"></path>
    </g>
  </symbol>

  <symbol id="nav_post" viewBox="0 0 24 24">
    <mask id="mask0_678_1237" maskUnits="userSpaceOnUse" x="0" y="0" width="24" height="24">
      <rect width="24" height="24" fill="#D9D9D9"></rect>
    </mask>
    <g mask="url(#mask0_678_1237)">
      <path d="M19.1998 2.40002C20.5253 2.40002 21.6002 3.47493 21.6002 4.80042V13.8004C21.5999 14.1316 21.3308 14.4 20.9996 14.4C20.6685 14.3998 20.4002 14.1315 20.4 13.8004V4.80042C20.4 4.13767 19.8625 3.60022 19.1998 3.60022H4.80035C4.13761 3.60022 3.60016 4.13767 3.60016 4.80042V19.1998C3.60016 19.8626 4.13761 20.4 4.80035 20.4H13.8004C14.1314 20.4002 14.3998 20.6686 14.4 20.9996C14.4 21.3309 14.1315 21.6 13.8004 21.6002H4.80035C3.47487 21.6002 2.39996 20.5253 2.39996 19.1998V4.80042C2.39996 3.47493 3.47487 2.40002 4.80035 2.40002H19.1998ZM16.7427 13.2164C18.3634 13.3811 19.6275 14.7506 19.6275 16.4147L19.6109 16.7428C19.5555 17.2879 19.3611 17.7904 19.0679 18.2203L21.4009 20.5533L21.4771 20.6471C21.6309 20.88 21.6059 21.196 21.4009 21.401C21.1958 21.606 20.8789 21.6311 20.6461 21.4772L20.5523 21.401L18.2193 19.068C17.7044 19.4188 17.0847 19.6274 16.4146 19.6276L16.0855 19.611C14.573 19.4572 13.37 18.2553 13.2164 16.7428L13.1998 16.4147C13.1998 14.6396 14.6395 13.1998 16.4146 13.1998L16.7427 13.2164ZM16.4146 14.4C15.3023 14.4 14.4 15.3023 14.4 16.4147C14.4003 17.5268 15.3025 18.4274 16.4146 18.4274C17.5265 18.427 18.427 17.5265 18.4273 16.4147C18.4273 15.3025 17.5267 14.4004 16.4146 14.4ZM14.4 10.1998C14.7313 10.1999 14.9996 10.4691 14.9996 10.8004C14.9993 11.1316 14.7312 11.4 14.4 11.4H7.19977C6.8686 11.3999 6.60038 11.1315 6.60016 10.8004C6.60016 10.4691 6.86846 10.1999 7.19977 10.1998H14.4ZM16.8004 6.60022C17.1315 6.60046 17.3999 6.86868 17.4 7.19983C17.4 7.53105 17.1315 7.80018 16.8004 7.80042H7.19977C6.86846 7.80034 6.60016 7.53115 6.60016 7.19983C6.60025 6.86859 6.86852 6.6003 7.19977 6.60022H16.8004Z" fill="#A3A3A4"></path>
    </g>
  </symbol>

  <symbol id="nav_profile_active" viewBox="0 0 24 24">
    <mask id="mask0_678_1256" maskUnits="userSpaceOnUse" x="0" y="0" width="24" height="24">
      <rect width="24" height="24" fill="#D9D9D9"></rect>
    </mask>
    <g mask="url(#mask0_678_1256)">
      <path d="M18.4434 2.40051C20.0026 2.40051 21.2665 3.66451 21.2666 5.22375V18.7765C21.2665 20.3357 20.0026 21.5997 18.4434 21.5997H4.8916C3.33237 21.5997 2.0685 20.3357 2.06836 18.7765V8.43762L8.10547 2.40051H18.4434ZM8.90332 6.41321C8.90305 7.97226 7.63918 9.23639 6.08008 9.23645H3.19727V18.7765C3.19741 19.712 3.9561 20.4698 4.8916 20.4698H18.4434C19.3789 20.4698 20.1376 19.712 20.1377 18.7765V5.22375C20.1376 4.28824 19.3789 3.52942 18.4434 3.52942H8.90332V6.41321ZM16.5605 14.8234C16.8723 14.8234 17.1248 15.0761 17.125 15.3878C17.125 15.6996 16.8724 15.9532 16.5605 15.9532H7.52539C7.2136 15.9532 6.96094 15.6996 6.96094 15.3878C6.9611 15.0761 7.2137 14.8234 7.52539 14.8234H16.5605ZM16.5605 11.4357C16.8724 11.4357 17.125 11.6883 17.125 12.0001C17.125 12.3119 16.8723 12.5645 16.5605 12.5646H7.52539C7.21363 12.5645 6.96099 12.3119 6.96094 12.0001C6.96094 11.6883 7.2136 11.4358 7.52539 11.4357H16.5605ZM16.5605 8.047C16.8724 8.04704 17.125 8.30059 17.125 8.61243C17.1247 8.92404 16.8722 9.17684 16.5605 9.17688H12.043C11.7313 9.17685 11.4788 8.92405 11.4785 8.61243C11.4785 8.30058 11.7311 8.04703 12.043 8.047H16.5605ZM3.99609 8.10657H6.08008C7.01545 8.1065 7.77415 7.34853 7.77441 6.41321V4.32727L3.99609 8.10657Z" fill="#5C5AEE"></path>
    </g>
  </symbol>

  <symbol id="nav_profile" viewBox="0 0 24 24">
    <mask id="mask0_678_1256" maskUnits="userSpaceOnUse" x="0" y="0" width="24" height="24">
      <rect width="24" height="24" fill="#D9D9D9"></rect>
    </mask>
    <g mask="url(#mask0_678_1256)">
      <path d="M18.4434 2.40051C20.0026 2.40051 21.2665 3.66451 21.2666 5.22375V18.7765C21.2665 20.3357 20.0026 21.5997 18.4434 21.5997H4.8916C3.33237 21.5997 2.0685 20.3357 2.06836 18.7765V8.43762L8.10547 2.40051H18.4434ZM8.90332 6.41321C8.90305 7.97226 7.63918 9.23639 6.08008 9.23645H3.19727V18.7765C3.19741 19.712 3.9561 20.4698 4.8916 20.4698H18.4434C19.3789 20.4698 20.1376 19.712 20.1377 18.7765V5.22375C20.1376 4.28824 19.3789 3.52942 18.4434 3.52942H8.90332V6.41321ZM16.5605 14.8234C16.8723 14.8234 17.1248 15.0761 17.125 15.3878C17.125 15.6996 16.8724 15.9532 16.5605 15.9532H7.52539C7.2136 15.9532 6.96094 15.6996 6.96094 15.3878C6.9611 15.0761 7.2137 14.8234 7.52539 14.8234H16.5605ZM16.5605 11.4357C16.8724 11.4357 17.125 11.6883 17.125 12.0001C17.125 12.3119 16.8723 12.5645 16.5605 12.5646H7.52539C7.21363 12.5645 6.96099 12.3119 6.96094 12.0001C6.96094 11.6883 7.2136 11.4358 7.52539 11.4357H16.5605ZM16.5605 8.047C16.8724 8.04704 17.125 8.30059 17.125 8.61243C17.1247 8.92404 16.8722 9.17684 16.5605 9.17688H12.043C11.7313 9.17685 11.4788 8.92405 11.4785 8.61243C11.4785 8.30058 11.7311 8.04703 12.043 8.047H16.5605ZM3.99609 8.10657H6.08008C7.01545 8.1065 7.77415 7.34853 7.77441 6.41321V4.32727L3.99609 8.10657Z" fill="#A3A3A4"></path>
    </g>
  </symbol>

</svg>