<svg width="36" height="36" viewBox="0 0 36 36" fill="none" xmlns="http://www.w3.org/2000/svg">
<circle cx="18" cy="18" r="18" fill="#F2F2F2"/>
<mask id="mask0_444_3158" style="mask-type:alpha" maskUnits="userSpaceOnUse" x="6" y="6" width="24" height="24">
<rect x="6" y="6" width="24" height="24" fill="#D9D9D9"/>
</mask>
<g mask="url(#mask0_444_3158)">
<path d="M25 18C25 14.2549 22.0589 11.1963 18.3604 11.0088L18 11C14.134 11 11 14.134 11 18C11 19.5917 11.53 21.0569 12.4238 22.2324C12.8431 22.7839 12.9309 23.5807 12.5137 24.2256L12.0117 25H18.1299C18.1374 24.9997 18.1448 24.9982 18.1523 24.998L18.5059 24.9814C22.1356 24.7225 25 21.6958 25 18ZM19.1025 25.6299H19.1035L19.041 25.5029L19.1025 25.6299ZM17.6816 25.1279C17.6729 25.1329 17.6639 25.1374 17.6553 25.1426C17.6639 25.1374 17.6729 25.1329 17.6816 25.1279ZM26 18C26 22.0207 23.0334 25.3449 19.1699 25.9111C19.1692 25.9034 19.1698 25.8955 19.1689 25.8877V25.8887C19.1698 25.8961 19.1693 25.9037 19.1699 25.9111C18.8437 25.9589 18.5116 25.9908 18.1738 25.998L18.1729 25.999V26H11.4531L11.3516 25.9932C10.8623 25.9242 10.5879 25.3605 10.8682 24.9268L11.6738 23.6826C11.8421 23.4225 11.8155 23.0835 11.6279 22.8369C10.6066 21.4936 10 19.8177 10 18C10 13.5817 13.5817 10 18 10C22.4183 10 26 13.5817 26 18Z" fill="#747577"/>
</g>
</svg>
