<svg width="24" height="24" viewBox="0 0 24 24" fill="none" xmlns="http://www.w3.org/2000/svg">
<mask id="mask0_364_1597" style="mask-type:alpha" maskUnits="userSpaceOnUse" x="-1" y="0" width="25" height="24">
<rect x="-0.000488281" width="24" height="24" fill="#D9D9D9"/>
</mask>
<g mask="url(#mask0_364_1597)">
<path d="M11.9994 12.5C16.4437 12.5001 20.1883 15.5387 20.4809 19.5C20.5012 19.7753 20.2755 19.9999 19.9994 20C19.7233 20 19.5014 19.7751 19.477 19.5C19.1835 16.1947 16.006 13.5001 11.9994 13.5C7.99277 13.5 4.81538 16.1947 4.52187 19.5C4.49747 19.775 4.2755 19.9999 3.99941 20C3.72327 20 3.49764 19.7754 3.51797 19.5C3.81055 15.5387 7.55506 12.5 11.9994 12.5ZM7.99941 8C7.99941 5.79086 9.79027 4 11.9994 4C14.2085 4.00005 15.9994 5.79089 15.9994 8C15.9994 10.2091 14.2085 11.9999 11.9994 12C9.79027 12 7.99941 10.2091 7.99941 8ZM11.9994 5C10.3426 5 8.99941 6.34315 8.99941 8C8.99941 9.65685 10.3426 11 11.9994 11C13.6562 10.9999 14.9994 9.65682 14.9994 8C14.9994 6.34318 13.6562 5.00005 11.9994 5Z" fill="#A3A3A4"/>
</g>
</svg>
