<svg width="24" height="24" viewBox="0 0 24 24" fill="none" xmlns="http://www.w3.org/2000/svg">
<mask id="mask0_678_1266" style="mask-type:alpha" maskUnits="userSpaceOnUse" x="0" y="0" width="24" height="24">
<rect width="24" height="24" fill="#D9D9D9"/>
</mask>
<g mask="url(#mask0_678_1266)">
<path d="M21.5988 21.5992C21.2679 21.5988 21.0022 21.3303 20.9728 21.0006C20.6209 17.0342 16.8081 13.8006 12.0002 13.8004C7.19206 13.8004 3.37854 17.034 3.02655 21.0006C2.99716 21.3306 2.73089 21.6002 2.3996 21.6002C2.06828 21.6002 1.79707 21.3301 1.82147 20.9996C2.17274 16.2462 6.66707 12.6002 12.0002 12.6002C17.3331 12.6004 21.8267 16.2463 22.1779 20.9996C22.2023 21.3301 21.9302 21.5992 21.5988 21.5992ZM12.0002 2.40002C14.6509 2.40026 16.7999 4.54909 16.8 7.19983C16.8 9.85065 14.651 11.9994 12.0002 11.9996C9.34922 11.9996 7.1994 9.8508 7.1994 7.19983C7.1995 4.54894 9.34928 2.40002 12.0002 2.40002ZM12.0002 3.60022C10.012 3.60022 8.39969 5.21168 8.3996 7.19983C8.3996 9.18805 10.012 10.8004 12.0002 10.8004C13.9882 10.8002 15.5998 9.18791 15.5998 7.19983C15.5997 5.21183 13.9882 3.60046 12.0002 3.60022Z" fill="#A3A3A4"/>
</g>
</svg>
