<svg width="24" height="24" viewBox="0 0 24 24" fill="none" xmlns="http://www.w3.org/2000/svg">
<mask id="mask0_678_1247" style="mask-type:alpha" maskUnits="userSpaceOnUse" x="0" y="0" width="24" height="24">
<rect width="24" height="24" fill="#D9D9D9"/>
</mask>
<g mask="url(#mask0_678_1247)">
<path d="M11.9996 2.40002C17.3014 2.40002 21.6 6.69788 21.6002 11.9996C21.6002 16.8245 18.0401 20.8142 13.4039 21.4938C13.4031 21.4845 13.404 21.4747 13.403 21.4655V21.4664C13.404 21.4754 13.4031 21.4848 13.4039 21.4938C13.0125 21.5511 12.6139 21.5886 12.2086 21.5973L12.2076 21.5992V21.6002H4.14417L4.02209 21.5914C3.43499 21.5086 3.10574 20.8326 3.44202 20.3121L4.40881 18.819C4.61064 18.5069 4.57812 18.1002 4.35315 17.8043C3.12764 16.1923 2.40002 14.1808 2.40002 11.9996C2.40024 6.69803 6.69803 2.40026 11.9996 2.40002ZM11.9996 3.60022C7.36077 3.60046 3.60043 7.36078 3.60022 11.9996C3.60022 13.9095 4.23582 15.6682 5.30823 17.0787C5.81125 17.7404 5.91699 18.6965 5.41663 19.4703L4.81409 20.4H12.1559C12.1649 20.3996 12.1742 20.3983 12.1832 20.3981L12.6071 20.3776C16.9627 20.0668 20.4 16.4346 20.4 11.9996C20.3998 7.50564 16.8704 3.836 12.4323 3.61096L11.9996 3.60022ZM8.64026 11.2799C9.03782 11.2799 9.36083 11.6021 9.36096 11.9996C9.36096 12.3973 9.0379 12.7203 8.64026 12.7203C8.24282 12.7201 7.92053 12.3971 7.92053 11.9996C7.92067 11.6023 8.2429 11.2801 8.64026 11.2799ZM12.0006 11.2799C12.3981 11.28 12.7202 11.6021 12.7203 11.9996C12.7203 12.3972 12.3982 12.7203 12.0006 12.7203C11.603 12.7203 11.2809 12.3973 11.2809 11.9996C11.281 11.6021 11.603 11.2799 12.0006 11.2799ZM15.36 11.2799C15.7575 11.2799 16.0806 11.6021 16.0807 11.9996C16.0807 12.3973 15.7576 12.7203 15.36 12.7203C14.9625 12.7202 14.6403 12.3972 14.6403 11.9996C14.6404 11.6022 14.9625 11.28 15.36 11.2799Z" fill="#5C5AEE"/>
</g>
</svg>
