<svg width="24" height="24" viewBox="0 0 24 24" fill="none" xmlns="http://www.w3.org/2000/svg">
<mask id="mask0_678_1256" style="mask-type:alpha" maskUnits="userSpaceOnUse" x="0" y="0" width="24" height="24">
<rect width="24" height="24" fill="#D9D9D9"/>
</mask>
<g mask="url(#mask0_678_1256)">
<path d="M18.4434 2.40051C20.0026 2.40051 21.2665 3.66451 21.2666 5.22375V18.7765C21.2665 20.3357 20.0026 21.5997 18.4434 21.5997H4.8916C3.33237 21.5997 2.0685 20.3357 2.06836 18.7765V8.43762L8.10547 2.40051H18.4434ZM8.90332 6.41321C8.90305 7.97226 7.63918 9.23639 6.08008 9.23645H3.19727V18.7765C3.19741 19.712 3.9561 20.4698 4.8916 20.4698H18.4434C19.3789 20.4698 20.1376 19.712 20.1377 18.7765V5.22375C20.1376 4.28824 19.3789 3.52942 18.4434 3.52942H8.90332V6.41321ZM16.5605 14.8234C16.8723 14.8234 17.1248 15.0761 17.125 15.3878C17.125 15.6996 16.8724 15.9532 16.5605 15.9532H7.52539C7.2136 15.9532 6.96094 15.6996 6.96094 15.3878C6.9611 15.0761 7.2137 14.8234 7.52539 14.8234H16.5605ZM16.5605 11.4357C16.8724 11.4357 17.125 11.6883 17.125 12.0001C17.125 12.3119 16.8723 12.5645 16.5605 12.5646H7.52539C7.21363 12.5645 6.96099 12.3119 6.96094 12.0001C6.96094 11.6883 7.2136 11.4358 7.52539 11.4357H16.5605ZM16.5605 8.047C16.8724 8.04704 17.125 8.30059 17.125 8.61243C17.1247 8.92404 16.8722 9.17684 16.5605 9.17688H12.043C11.7313 9.17685 11.4788 8.92405 11.4785 8.61243C11.4785 8.30058 11.7311 8.04703 12.043 8.047H16.5605ZM3.99609 8.10657H6.08008C7.01545 8.1065 7.77415 7.34853 7.77441 6.41321V4.32727L3.99609 8.10657Z" fill="#A3A3A4"/>
</g>
</svg>
