<svg width="24" height="24" viewBox="0 0 24 24" fill="none" xmlns="http://www.w3.org/2000/svg">
<mask id="mask0_678_1237" style="mask-type:alpha" maskUnits="userSpaceOnUse" x="0" y="0" width="24" height="24">
<rect width="24" height="24" fill="#D9D9D9"/>
</mask>
<g mask="url(#mask0_678_1237)">
<path d="M19.1998 2.40002C20.5253 2.40002 21.6002 3.47493 21.6002 4.80042V13.8004C21.5999 14.1316 21.3308 14.4 20.9996 14.4C20.6685 14.3998 20.4002 14.1315 20.4 13.8004V4.80042C20.4 4.13767 19.8625 3.60022 19.1998 3.60022H4.80035C4.13761 3.60022 3.60016 4.13767 3.60016 4.80042V19.1998C3.60016 19.8626 4.13761 20.4 4.80035 20.4H13.8004C14.1314 20.4002 14.3998 20.6686 14.4 20.9996C14.4 21.3309 14.1315 21.6 13.8004 21.6002H4.80035C3.47487 21.6002 2.39996 20.5253 2.39996 19.1998V4.80042C2.39996 3.47493 3.47487 2.40002 4.80035 2.40002H19.1998ZM16.7427 13.2164C18.3634 13.3811 19.6275 14.7506 19.6275 16.4147L19.6109 16.7428C19.5555 17.2879 19.3611 17.7904 19.0679 18.2203L21.4009 20.5533L21.4771 20.6471C21.6309 20.88 21.6059 21.196 21.4009 21.401C21.1958 21.606 20.8789 21.6311 20.6461 21.4772L20.5523 21.401L18.2193 19.068C17.7044 19.4188 17.0847 19.6274 16.4146 19.6276L16.0855 19.611C14.573 19.4572 13.37 18.2553 13.2164 16.7428L13.1998 16.4147C13.1998 14.6396 14.6395 13.1998 16.4146 13.1998L16.7427 13.2164ZM16.4146 14.4C15.3023 14.4 14.4 15.3023 14.4 16.4147C14.4003 17.5268 15.3025 18.4274 16.4146 18.4274C17.5265 18.427 18.427 17.5265 18.4273 16.4147C18.4273 15.3025 17.5267 14.4004 16.4146 14.4ZM14.4 10.1998C14.7313 10.1999 14.9996 10.4691 14.9996 10.8004C14.9993 11.1316 14.7312 11.4 14.4 11.4H7.19977C6.8686 11.3999 6.60038 11.1315 6.60016 10.8004C6.60016 10.4691 6.86846 10.1999 7.19977 10.1998H14.4ZM16.8004 6.60022C17.1315 6.60046 17.3999 6.86868 17.4 7.19983C17.4 7.53105 17.1315 7.80018 16.8004 7.80042H7.19977C6.86846 7.80034 6.60016 7.53115 6.60016 7.19983C6.60025 6.86859 6.86852 6.6003 7.19977 6.60022H16.8004Z" fill="#A3A3A4"/>
</g>
</svg>
