<svg width="24" height="24" viewBox="0 0 24 24" fill="none" xmlns="http://www.w3.org/2000/svg">
<mask id="mask0_678_1230" style="mask-type:alpha" maskUnits="userSpaceOnUse" x="0" y="0" width="24" height="24">
<rect width="24" height="24" fill="#D9D9D9"/>
</mask>
<g mask="url(#mask0_678_1230)">
<path d="M10.2882 3.07134C11.2529 2.17565 12.7453 2.17587 13.7101 3.07134L19.9982 8.90923C20.5103 9.385 20.8009 10.0529 20.8009 10.752V19.085L20.7872 19.3419C20.6672 20.5257 19.7269 21.4669 18.5431 21.587L18.2863 21.5997H5.71301L5.45618 21.587C4.27242 21.4669 3.33205 20.5256 3.21204 19.3419L3.19836 19.085V10.752C3.19839 10.053 3.48902 9.385 4.0011 8.90923L10.2882 3.07134ZM12.8556 3.99224C12.3732 3.54444 11.6261 3.54445 11.1437 3.99224L4.85754 9.83111C4.60157 10.069 4.4562 10.4026 4.45618 10.752V19.085C4.45618 19.7794 5.01862 20.3428 5.71301 20.3428H8.85657V15.3135C8.85657 13.9247 9.98239 12.7989 11.3712 12.7989H12.6281C14.0169 12.7989 15.1427 13.9247 15.1427 15.3135V20.3428H18.2863C18.9807 20.3428 19.5441 19.7794 19.5441 19.085V10.752C19.544 10.4027 19.3985 10.069 19.1427 9.83111L12.8556 3.99224ZM11.3712 14.0557C10.6768 14.0557 10.1134 14.6191 10.1134 15.3135V20.3428H13.8859V15.3135C13.8859 14.6191 13.3225 14.0557 12.6281 14.0557H11.3712Z" fill="#5C5AEE"/>
</g>
</svg>
