<svg width="24" height="24" viewBox="0 0 24 24" fill="none" xmlns="http://www.w3.org/2000/svg">
<mask id="mask0_364_1609" style="mask-type:alpha" maskUnits="userSpaceOnUse" x="0" y="0" width="24" height="24">
<rect width="24" height="24" fill="#D9D9D9"/>
</mask>
<g mask="url(#mask0_364_1609)">
<path d="M12.3195 4C15.5964 4 18.2531 6.6567 18.2531 9.93359V12.2998L18.2678 12.7666C18.3357 13.8515 18.6392 14.9109 19.1604 15.8691L19.5158 16.5225C19.878 17.1888 19.3954 18 18.6369 18H15.674C15.2437 19.4455 13.9057 20.4998 12.3205 20.5C10.7351 20.5 9.39639 19.4456 8.96602 18H6.00216L5.86251 17.9912C5.23132 17.9054 4.83813 17.2439 5.06466 16.6484L5.12325 16.5225L5.47872 15.8691C6.07438 14.7739 6.38594 13.5466 6.38594 12.2998V9.93359C6.38594 6.6568 9.04279 4.00016 12.3195 4ZM10.0305 18C10.4165 18.8825 11.2957 19.5 12.3205 19.5C13.3453 19.4998 14.2247 18.8825 14.6106 18H10.0305ZM12.3195 5C9.59507 5.00016 7.38594 7.20909 7.38594 9.93359V12.2998C7.38594 13.7135 7.03206 15.1048 6.35665 16.3467L6.00216 17H18.6369L18.2824 16.3467C17.6071 15.1048 17.2531 13.7134 17.2531 12.2998V9.93359C17.2531 7.20899 15.0441 5 12.3195 5Z" fill="#18191C"/>
</g>
</svg>
