<svg width="24" height="24" viewBox="0 0 24 24" fill="none" xmlns="http://www.w3.org/2000/svg">
<mask id="mask0_364_1587" style="mask-type:alpha" maskUnits="userSpaceOnUse" x="-1" y="0" width="25" height="24">
<rect x="-0.000488281" width="24" height="24" fill="#D9D9D9"/>
</mask>
<g mask="url(#mask0_364_1587)">
<path d="M17.6675 3.5C19.048 3.50026 20.1675 4.61945 20.1675 6V18C20.1675 19.3805 19.048 20.4997 17.6675 20.5H5.66748C4.28677 20.5 3.1665 19.3807 3.1665 18V8.8457L8.51318 3.5H17.6675ZM9.22021 7.05273C9.22016 8.4332 8.10062 9.55241 6.72021 9.55273H4.16748V18C4.16748 18.8284 4.83905 19.5 5.66748 19.5H17.6675C18.4957 19.4997 19.1675 18.8283 19.1675 18V6C19.1675 5.17174 18.4957 4.50026 17.6675 4.5H9.22021V7.05273ZM15.9995 14.5C16.2757 14.5 16.4995 14.7239 16.4995 15C16.4995 15.2761 16.2757 15.5 15.9995 15.5H7.99951C7.72337 15.5 7.49951 15.2761 7.49951 15C7.49951 14.7239 7.72337 14.5 7.99951 14.5H15.9995ZM15.9995 11.5C16.2757 11.5 16.4995 11.7239 16.4995 12C16.4995 12.2761 16.2757 12.5 15.9995 12.5H7.99951C7.72337 12.5 7.49951 12.2761 7.49951 12C7.49951 11.7239 7.72337 11.5 7.99951 11.5H15.9995ZM15.9995 8.5C16.2757 8.5 16.4995 8.72386 16.4995 9C16.4995 9.27614 16.2757 9.5 15.9995 9.5H11.9995C11.7234 9.5 11.4995 9.27614 11.4995 9C11.4995 8.72386 11.7234 8.5 11.9995 8.5H15.9995ZM4.87451 8.55273H6.72021C7.54833 8.55241 8.22016 7.88092 8.22021 7.05273V5.20703L4.87451 8.55273Z" fill="#A3A3A4"/>
</g>
</svg>
