<svg width="24" height="24" viewBox="0 0 24 24" fill="none" xmlns="http://www.w3.org/2000/svg">
<mask id="mask0_317_1089" style="mask-type:alpha" maskUnits="userSpaceOnUse" x="0" y="0" width="24" height="24">
<rect width="24" height="24" fill="#D9D9D9"/>
</mask>
<g mask="url(#mask0_317_1089)">
<path d="M10.7881 4C14.5371 4.00007 17.576 7.03913 17.5762 10.7881C17.5762 12.4882 16.9488 14.0405 15.916 15.2314L19.8584 19.1738L19.9199 19.25C20.0443 19.4382 20.0242 19.6936 19.8584 19.8594C19.6926 20.0251 19.4372 20.0453 19.249 19.9209L19.1729 19.8594L15.2314 15.918C14.0406 16.9505 12.488 17.5771 10.7881 17.5771C7.03893 17.5771 4 14.5372 4 10.7881C4.00021 7.03911 7.03906 4.00002 10.7881 4ZM10.7881 4.96973C7.57466 4.96975 4.96994 7.5747 4.96973 10.7881C4.96973 14.0017 7.57453 16.6074 10.7881 16.6074C14.0016 16.6074 16.6064 14.0016 16.6064 10.7881C16.6062 7.57473 14.0015 4.96979 10.7881 4.96973Z" fill="#5C5AEE"/>
<path d="M10.7881 4L10.7881 3.7H10.7881L10.7881 4ZM17.5762 10.7881H17.8762V10.7881L17.5762 10.7881ZM15.916 15.2314L15.6894 15.0349L15.5063 15.246L15.7039 15.4436L15.916 15.2314ZM19.8584 19.1738L20.0918 18.9853L20.0818 18.9729L20.0705 18.9617L19.8584 19.1738ZM19.9199 19.25L20.1702 19.0846L20.1623 19.0726L20.1533 19.0615L19.9199 19.25ZM19.8584 19.8594L20.0705 20.0715L20.0705 20.0715L19.8584 19.8594ZM19.249 19.9209L19.0605 20.1543L19.0717 20.1633L19.0836 20.1712L19.249 19.9209ZM19.1729 19.8594L18.9607 20.0715L18.972 20.0828L18.9844 20.0928L19.1729 19.8594ZM15.2314 15.918L15.4436 15.7058L15.246 15.5083L15.0349 15.6913L15.2314 15.918ZM10.7881 17.5771L10.7881 17.8771H10.7881L10.7881 17.5771ZM4 10.7881L3.7 10.7881V10.7881H4ZM10.7881 4.96973L10.7881 4.66973H10.7881L10.7881 4.96973ZM4.96973 10.7881L4.66973 10.7881V10.7881H4.96973ZM10.7881 16.6074L10.7881 16.9074H10.7881L10.7881 16.6074ZM16.6064 10.7881H16.9064V10.7881L16.6064 10.7881ZM10.7881 4L10.7881 4.3C14.3714 4.30006 17.276 7.20481 17.2762 10.7881L17.5762 10.7881L17.8762 10.7881C17.876 6.87346 14.7028 3.70007 10.7881 3.7L10.7881 4ZM17.5762 10.7881H17.2762C17.2762 12.4129 16.6769 13.8961 15.6894 15.0349L15.916 15.2314L16.1427 15.428C17.2207 14.1848 17.8762 12.5635 17.8762 10.7881H17.5762ZM15.916 15.2314L15.7039 15.4436L19.6463 19.386L19.8584 19.1738L20.0705 18.9617L16.1281 15.0193L15.916 15.2314ZM19.8584 19.1738L19.625 19.3623L19.6865 19.4385L19.9199 19.25L20.1533 19.0615L20.0918 18.9853L19.8584 19.1738ZM19.9199 19.25L19.6697 19.4154C19.7173 19.4875 19.7089 19.5846 19.6463 19.6472L19.8584 19.8594L20.0705 20.0715C20.3394 19.8026 20.3714 19.3889 20.1702 19.0846L19.9199 19.25ZM19.8584 19.8594L19.6463 19.6472C19.5837 19.7098 19.4865 19.7183 19.4145 19.6706L19.249 19.9209L19.0836 20.1712C19.388 20.3724 19.8016 20.3404 20.0705 20.0715L19.8584 19.8594ZM19.249 19.9209L19.4375 19.6875L19.3614 19.626L19.1729 19.8594L18.9844 20.0928L19.0605 20.1543L19.249 19.9209ZM19.1729 19.8594L19.385 19.6472L15.4436 15.7058L15.2314 15.918L15.0193 16.1301L18.9607 20.0715L19.1729 19.8594ZM15.2314 15.918L15.0349 15.6913C13.8963 16.6785 12.4128 17.2771 10.7881 17.2771L10.7881 17.5771L10.7881 17.8771C12.5632 17.8771 14.1848 17.2224 15.428 16.1446L15.2314 15.918ZM10.7881 17.5771L10.7881 17.2771C7.20467 17.2771 4.3 14.3716 4.3 10.7881H4H3.7C3.7 14.7029 6.87319 17.8771 10.7881 17.8771L10.7881 17.5771ZM4 10.7881L4.3 10.7881C4.3002 7.20478 7.20476 4.30002 10.7881 4.3L10.7881 4L10.7881 3.7C6.87336 3.70002 3.70022 6.87343 3.7 10.7881L4 10.7881ZM10.7881 4.96973L10.7881 4.66973C7.40895 4.66975 4.66995 7.40903 4.66973 10.7881L4.96973 10.7881L5.26973 10.7881C5.26993 7.74037 7.74036 5.26975 10.7881 5.26973L10.7881 4.96973ZM4.96973 10.7881H4.66973C4.66973 14.1673 7.40878 16.9074 10.7881 16.9074L10.7881 16.6074L10.7881 16.3074C7.74027 16.3074 5.26973 13.836 5.26973 10.7881H4.96973ZM10.7881 16.6074L10.7881 16.9074C14.1674 16.9074 16.9064 14.1672 16.9064 10.7881H16.6064H16.3064C16.3064 13.836 13.8359 16.3074 10.7881 16.3074L10.7881 16.6074ZM16.6064 10.7881L16.9064 10.7881C16.9062 7.40905 14.1672 4.6698 10.7881 4.66973L10.7881 4.96973L10.7881 5.26973C13.8358 5.26979 16.3062 7.7404 16.3064 10.7881L16.6064 10.7881Z" fill="#5C5AEE"/>
</g>
</svg>
