<svg width="24" height="24" viewBox="0 0 24 24" fill="none" xmlns="http://www.w3.org/2000/svg">
<mask id="mask0_364_1603" style="mask-type:alpha" maskUnits="userSpaceOnUse" x="0" y="0" width="24" height="24">
<rect width="24" height="24" fill="#D9D9D9"/>
</mask>
<g mask="url(#mask0_364_1603)">
<path d="M13.1299 4C14.4289 4.00039 15.4822 5.05347 15.4824 6.35254V8.98828C15.4823 9.24793 15.2713 9.45875 15.0117 9.45898C14.752 9.45886 14.5411 9.248 14.541 8.98828V6.35254C14.5408 5.57327 13.9091 4.9418 13.1299 4.94141H6.35254C5.57316 4.94162 4.94162 5.57316 4.94141 6.35254V17.6475C4.94182 18.4267 5.57328 19.0584 6.35254 19.0586H13.1299C13.909 19.0582 14.5406 18.4266 14.541 17.6475V14.8232C14.5412 14.5636 14.752 14.3527 15.0117 14.3525C15.2713 14.3528 15.4823 14.5636 15.4824 14.8232V17.6475C15.482 18.9464 14.4288 19.9996 13.1299 20H6.35254C5.05349 19.9998 4.00042 18.9465 4 17.6475V6.35254C4.00022 5.05336 5.05336 4.00022 6.35254 4H13.1299ZM17.3145 9.78516C17.4982 9.60138 17.7967 9.60138 17.9805 9.78516L19.8623 11.667C19.8656 11.6703 19.8679 11.6753 19.8711 11.6787C19.8857 11.6942 19.8997 11.7101 19.9121 11.7275C19.9172 11.7346 19.9221 11.7417 19.9268 11.749C19.9389 11.7682 19.9487 11.7886 19.958 11.8096C19.9608 11.8159 19.9643 11.8217 19.9668 11.8281C19.9736 11.8455 19.9786 11.8635 19.9834 11.8818C20.0015 11.9517 20.0047 12.0242 19.9902 12.0947C19.9848 12.1211 19.9764 12.1463 19.9668 12.1709C19.9651 12.1751 19.9637 12.1794 19.9619 12.1836C19.952 12.2069 19.9401 12.2288 19.9268 12.25C19.9221 12.2573 19.9172 12.2644 19.9121 12.2715C19.8997 12.2889 19.8857 12.3047 19.8711 12.3203C19.8677 12.3239 19.8658 12.3295 19.8623 12.333L17.9805 14.2148C17.7967 14.3986 17.4982 14.3986 17.3145 14.2148C17.1311 14.0312 17.1312 13.7335 17.3145 13.5498L18.3936 12.4707H8.23535C7.97565 12.4705 7.76566 12.2597 7.76562 12C7.76562 11.7402 7.97563 11.5295 8.23535 11.5293H18.3936L17.3145 10.4502C17.1311 10.2665 17.1312 9.96887 17.3145 9.78516Z" fill="#18191C"/>
</g>
</svg>
