<svg width="28" height="28" viewBox="0 0 28 28" fill="none" xmlns="http://www.w3.org/2000/svg">
<circle cx="14.0006" cy="13.9999" r="13.9999" fill="#5C5AEE"/>
<mask id="mask0_430_2281" style="mask-type:alpha" maskUnits="userSpaceOnUse" x="4" y="4" width="20" height="20">
<rect x="4.66748" y="4.6665" width="18.6665" height="18.6665" fill="white"/>
</mask>
<g mask="url(#mask0_430_2281)">
<path d="M13.2056 8.33813C13.5851 7.48766 14.7275 7.48755 15.1069 8.33813L19.7319 18.7083C20.0475 19.4158 19.5925 20.2391 18.8589 20.2942V20.3H18.5278V20.2952C18.4114 20.2862 18.2972 20.259 18.1909 20.2112L18.186 20.2083L18.0698 20.1467L18.0649 20.1438L14.4468 17.8538C14.2691 17.7416 14.0424 17.7414 13.8647 17.8538L10.2466 20.1438L10.2417 20.1467L10.1255 20.2083L10.1206 20.2112C10.0144 20.2589 9.90017 20.2862 9.78369 20.2952V20.3H9.45264V20.2942C8.76661 20.2425 8.32508 19.5192 8.52881 18.8479L8.52979 18.843L8.57861 18.7131L8.58057 18.7083L13.2056 8.33813ZM14.1118 8.64575C14.101 8.65273 14.0793 8.67067 14.0581 8.71802L9.43311 19.0881C9.39926 19.164 9.40751 19.2434 9.44287 19.303C9.46054 19.3327 9.47818 19.3477 9.4917 19.3557L9.53076 19.3665H9.70557C9.71995 19.3665 9.73508 19.3625 9.74756 19.3547L13.3657 17.0647C13.8481 16.7596 14.4634 16.7597 14.9458 17.0647L18.564 19.3538L18.606 19.3665H18.7808C18.7928 19.3665 18.8063 19.3636 18.8198 19.3557C18.8333 19.3477 18.851 19.3327 18.8687 19.303C18.9042 19.243 18.9131 19.1636 18.8794 19.0881L14.2534 8.71802C14.232 8.67002 14.2099 8.65231 14.1997 8.64575C14.1868 8.63757 14.1714 8.63307 14.1558 8.63306C14.1401 8.63312 14.1248 8.63745 14.1118 8.64575Z" fill="white" stroke="white" stroke-width="0.155551"/>
</g>
</svg>
