<svg width="12" height="12" viewBox="0 0 12 12" fill="none" xmlns="http://www.w3.org/2000/svg">
<mask id="mask0_444_3203" style="mask-type:alpha" maskUnits="userSpaceOnUse" x="0" y="0" width="12" height="12">
<rect x="0.666992" y="0.666748" width="10.6658" height="10.6658" fill="#D9D9D9"/>
</mask>
<g mask="url(#mask0_444_3203)">
<path d="M6.54531 3.03999C6.72329 2.73189 7.1039 2.61386 7.42227 2.75679L7.48574 2.78901L8.23184 3.21968L8.29043 3.25776C8.57373 3.46193 8.66172 3.85079 8.48379 4.15913L5.98672 8.4853C5.91192 8.61485 5.79652 8.71617 5.65859 8.77437L4.58145 9.22944L4.54238 9.24312C4.35616 9.29656 4.16055 9.18304 4.11367 8.99507L4.10586 8.95405L3.96035 7.79487C3.94179 7.64641 3.97256 7.49567 4.04727 7.36616L6.54531 3.03999ZM4.43203 7.58784C4.40572 7.63342 4.39524 7.68673 4.40176 7.73921L4.53066 8.76753L5.48574 8.36519C5.53449 8.34462 5.5756 8.3092 5.60195 8.26362L7.66055 4.69624L6.49063 4.02144L4.43203 7.58784ZM7.26309 3.17378C7.14559 3.1062 6.99687 3.14652 6.93008 3.26167L6.71231 3.63667L7.88223 4.31245L8.09902 3.93745C8.15733 3.83631 8.13466 3.70939 8.04922 3.63374L8.00918 3.60444L7.26309 3.17378Z" fill="white"/>
</g>
</svg>
