<svg width="20" height="20" viewBox="0 0 20 20" fill="none" xmlns="http://www.w3.org/2000/svg">
<mask id="mask0_382_1174" style="mask-type:alpha" maskUnits="userSpaceOnUse" x="0" y="0" width="20" height="20">
<rect width="20" height="20" fill="#D9D9D9"/>
</mask>
<g mask="url(#mask0_382_1174)">
<path d="M11.0223 4.44975C11.3561 3.8719 12.0708 3.65023 12.6678 3.9185L12.786 3.97904L14.1844 4.78666L14.2957 4.85795C14.8268 5.24079 14.9916 5.9703 14.658 6.54838L9.97541 14.6607C9.83515 14.9036 9.61883 15.0936 9.36018 15.2027L7.34163 16.0552L7.26741 16.0806C6.91817 16.1809 6.55161 15.9693 6.4637 15.6167L6.44807 15.5396L6.17659 13.3648C6.14184 13.0863 6.19849 12.8039 6.3387 12.5611L11.0223 4.44975ZM7.06038 12.9781C7.01111 13.0634 6.99059 13.163 7.00276 13.2613L7.24495 15.19L9.03694 14.4351C9.12819 14.3965 9.20345 14.3291 9.25276 14.2437L13.1131 7.55717L10.9198 6.29154L7.06038 12.9781ZM12.3699 4.70072C12.1494 4.5734 11.8692 4.64938 11.744 4.86576L11.3367 5.56987L13.5291 6.83549L13.9364 6.13237C14.0457 5.94272 14.0038 5.70391 13.8436 5.56205L13.7674 5.50834L12.3699 4.70072Z" fill="white"/>
</g>
</svg>
