<svg width="114" height="27" viewBox="0 0 114 27" fill="none" xmlns="http://www.w3.org/2000/svg">
<path d="M8.06301 18.2356H0V0H8.06301C12.8902 0 16.8156 3.92541 16.8156 8.75261V9.47893C16.8156 14.3061 12.8902 18.2315 8.06301 18.2315V18.2356ZM3.26437 14.9712H8.06301C11.0907 14.9712 13.5512 12.5066 13.5512 9.48301V8.75669C13.5512 5.72898 11.0866 3.26846 8.06301 3.26846H3.26437V14.9753V14.9712Z" fill="#5C5AEE"/>
<path d="M72.5792 18.2356C68.3315 18.2356 64.8794 14.7795 64.8794 10.5317C64.8794 6.28392 68.3355 2.82776 72.5792 2.82776C76.8229 2.82776 80.2832 6.28392 80.2832 10.5317C80.2832 14.7795 76.827 18.2356 72.5792 18.2356ZM72.5792 6.09621C70.131 6.09621 68.1438 8.08748 68.1438 10.5358C68.1438 12.984 70.135 14.9753 72.5792 14.9753C75.0234 14.9753 77.0188 12.984 77.0188 10.5358C77.0188 8.08748 75.0275 6.09621 72.5792 6.09621Z" fill="#5C5AEE"/>
<path d="M32.2114 14.9712H25.548C25.4705 14.9712 25.397 14.9712 25.3236 14.9672L33.2968 9.70744L32.9989 8.57307C32.1094 5.19444 29.049 2.83185 25.548 2.83185C21.3002 2.83185 17.8481 6.28801 17.8481 10.5358C17.8481 14.7835 21.3043 18.2397 25.548 18.2397H32.2114V14.9753V14.9712ZM21.1084 10.5317C21.1084 8.08341 23.0997 6.09214 25.5439 6.09214C27.172 6.09214 28.641 6.98168 29.4122 8.34864L22.0225 13.2248C21.4471 12.4781 21.1084 11.5436 21.1084 10.5276V10.5317Z" fill="#5C5AEE"/>
<path d="M101.861 19.1293C101.861 21.5775 103.848 23.5687 106.297 23.5687C108.745 23.5686 110.736 21.5774 110.736 19.1293H114.001C114.001 23.3769 110.54 26.8332 106.297 26.8334C102.053 26.8334 98.5964 23.377 98.5963 19.1293H101.861ZM113.996 2.59119V11.1927H113.964C113.629 15.1343 110.32 18.2394 106.297 18.2396C102.053 18.2396 98.5963 14.7833 98.5963 10.5355C98.5963 6.28778 102.049 2.83142 106.297 2.83142C107.953 2.8315 109.479 3.35796 110.736 4.24744V2.59119H113.996ZM106.297 6.09216C103.852 6.09216 101.861 8.08333 101.861 10.5316C101.861 12.9798 103.848 14.9711 106.297 14.9711C108.745 14.9709 110.736 12.9797 110.736 10.5316C110.736 8.08345 108.741 6.09236 106.297 6.09216Z" fill="#5C5AEE"/>
<path d="M59.1464 18.2356H49.4308V14.9712H59.1464C60.0319 14.9712 60.75 14.3428 60.75 13.5676C60.75 12.7923 60.0319 12.1639 59.1464 12.1639H54.005C51.3201 12.1639 49.137 10.0706 49.137 7.49581C49.137 4.92104 51.3201 2.82776 54.005 2.82776H60.9173V6.09213H54.005C53.1196 6.09213 52.4014 6.72053 52.4014 7.49581C52.4014 8.2711 53.1196 8.8995 54.005 8.8995H59.1464C61.8314 8.8995 64.0144 10.9928 64.0144 13.5676C64.0144 16.1423 61.8314 18.2356 59.1464 18.2356Z" fill="#5C5AEE"/>
<path d="M96.9071 18.0642H93.6427V11.2661C93.6427 8.41796 91.6514 6.10025 89.2031 6.10025C86.7549 6.10025 84.7636 8.41796 84.7636 11.2661V18.0642H81.4992V11.2661C81.4992 6.61847 84.9554 2.83588 89.2031 2.83588C93.4509 2.83588 96.9071 6.61847 96.9071 11.2661V18.0642Z" fill="#5C5AEE"/>
<path d="M45.1545 3.28894L40.7272 13.5799L36.304 3.28894H32.8968L39.2501 18.0643H42.2043L48.5576 3.28894H45.1545Z" fill="#5C5AEE"/>
</svg>
